<svg xmlns="http://www.w3.org/2000/svg" version="1.1" xmlns:xlink="http://www.w3.org/1999/xlink" xmlns:svgjs="http://svgjs.dev/svgjs" width="1500" height="503" viewBox="0 0 1500 503"><g transform="matrix(1,0,0,1,-0.9090909090909918,-0.20016638651424046)"><svg viewBox="0 0 396 133" data-background-color="#1f0f53" preserveAspectRatio="xMidYMid meet" height="503" width="1500" xmlns="http://www.w3.org/2000/svg" xmlns:xlink="http://www.w3.org/1999/xlink"><g id="tight-bounds" transform="matrix(1,0,0,1,0.2400000000000091,0.05292669862106436)"><svg viewBox="0 0 395.52 132.89414660275784" height="132.89414660275784" width="395.52"><g><svg viewBox="0 0 638.3614400350684 214.48851839999998" height="132.89414660275784" width="395.52"><g transform="matrix(1,0,0,1,0,47.193848241095885)"><svg viewBox="0 0 395.52 120.1008219178082" height="120.1008219178082" width="395.52"><g id="textblocktransform"><svg viewBox="0 0 395.52 120.1008219178082" height="120.1008219178082" width="395.52" id="textblock"><g><svg viewBox="0 0 395.52 120.1008219178082" height="120.1008219178082" width="395.52"><g transform="matrix(1,0,0,1,0,0)"><svg width="395.52" viewBox="2.45 -32.75 109.49 33.25" height="120.1008219178082" data-palette-color="#ffdb99"><path d="M16.85-23.05L16.85-17.65Q18.6-16.55 19.75-14.53 20.9-12.5 20.85-9.3L20.85-9.3Q20.8-4.85 18.4-2.18 16 0.5 11.2 0.5L11.2 0.5Q9.1 0.5 7.03-0.1 4.95-0.7 3.55-1.8L3.55-1.8 3.55-26.85 2.45-29.5Q5.9-31.3 9.35-31.3L9.35-31.3Q13.25-31.3 15.05-28.93 16.85-26.55 16.85-23.05L16.85-23.05ZM7.05-19.35L10.8-19.35Q11.4-19.35 12.05-19.28 12.7-19.2 13.35-19.1L13.35-19.1 13.35-23Q13.35-25 12.48-26.55 11.6-28.1 9.4-28.1L9.4-28.1Q8-28.1 7.05-27.7L7.05-27.7 7.05-19.35ZM7.05-16.15L7.05-3.9Q7.9-3.25 9.08-2.98 10.25-2.7 11.5-2.7L11.5-2.7Q14.35-2.7 15.8-4.5 17.25-6.3 17.25-9.35L17.25-9.35Q17.25-12.45 15.58-14.3 13.9-16.15 10.75-16.15L10.75-16.15 7.05-16.15ZM25.3-30.8L28.85-30.8 28.85-27.05 25.3-27.05 25.3-30.8ZM24.45-22.5L28.65-22.5 28.65 0 25.5 0 25.5-19.35 24.45-22.5ZM33.54-1.8L34.94-4.35 34.94-29.6 33.94-32.75 38.14-32.75 38.14-22.4Q39.19-22.7 40.12-22.85 41.04-23 42.14-23L42.14-23Q45.24-23 47.32-21.3 49.39-19.6 50.42-16.93 51.44-14.25 51.44-11.25L51.44-11.25Q51.44-8.25 50.52-5.58 49.59-2.9 47.52-1.2 45.44 0.5 41.99 0.5L41.99 0.5Q39.44 0.5 37.27-0.2 35.09-0.9 33.54-1.8L33.54-1.8ZM38.14-19.2L38.14-3.3Q39.74-2.5 41.8-2.5L41.8-2.5Q44.34-2.5 45.72-3.85 47.09-5.2 47.62-7.23 48.14-9.25 48.14-11.25L48.14-11.25Q48.14-13.25 47.57-15.28 46.99-17.3 45.59-18.65 44.19-20 41.74-20L41.74-20Q40.49-20 39.59-19.73 38.69-19.45 38.14-19.2L38.14-19.2ZM58.74-19.85L58.99-23Q61.09-23 63.19-22.63 65.29-22.25 67.04-21.33 68.79-20.4 69.84-18.68 70.89-16.95 70.89-14.25L70.89-14.25 70.89-4.25 72.24-1.95Q69.94-0.65 67.67-0.08 65.39 0.5 63.49 0.5L63.49 0.5Q61.04 0.5 59.54-0.13 58.04-0.75 57.19-1.55L57.19-1.55Q56.39-2.4 55.79-3.68 55.19-4.95 55.19-6.55L55.19-6.55Q55.19-9.05 56.24-10.68 57.29-12.3 59.07-13.2 60.84-14.1 63.07-14.48 65.29-14.85 67.69-14.85L67.69-14.85Q67.59-16.5 66.72-17.48 65.84-18.45 64.52-18.95 63.19-19.45 61.69-19.63 60.19-19.8 58.74-19.85L58.74-19.85ZM67.69-3.35L67.69-11.85Q66.49-11.85 64.94-11.7 63.39-11.55 61.94-11.08 60.49-10.6 59.54-9.6 58.59-8.6 58.59-6.9L58.59-6.9Q58.59-5.75 58.94-4.98 59.29-4.2 59.74-3.8L59.74-3.8Q60.54-3 61.57-2.75 62.59-2.5 63.59-2.5L63.59-2.5Q64.79-2.5 65.79-2.75 66.79-3 67.69-3.35L67.69-3.35ZM90.34-21.2L89.04-18.4Q87.64-19.1 86.31-19.5 84.99-19.9 83.29-19.9L83.29-19.9Q81.64-19.9 80.47-19.25 79.29-18.6 79.29-16.85L79.29-16.85Q79.29-15.5 80.19-14.73 81.09-13.95 82.39-13.3L82.39-13.3 85.69-11.7Q87.89-10.65 89.14-9.28 90.39-7.9 90.39-5.9L90.39-5.9 90.39-4.75 92.09-2.7Q89.94-0.7 87.54-0.1 85.14 0.5 82.94 0.5L82.94 0.5Q80.79 0.5 79.04 0.13 77.29-0.25 76.09-0.75L76.09-0.75 76.09-3.95Q77.49-3.35 79.02-2.93 80.54-2.5 82.84-2.5L82.84-2.5Q84.19-2.5 85.37-2.8 86.54-3.1 87.19-3.6L87.19-3.6 87.19-4.6Q87.19-6.1 86.56-7.08 85.94-8.05 84.04-9L84.04-9 80.19-10.9Q78.54-11.75 77.31-13.05 76.09-14.35 76.09-16.85L76.09-16.85Q76.09-19.65 78.02-21.33 79.94-23 83.29-23L83.29-23Q85.44-23 87.22-22.5 88.99-22 90.34-21.2L90.34-21.2ZM99.09-32.75L99.09-22.35Q99.99-22.65 101.06-22.83 102.14-23 103.29-23L103.29-23Q104.54-23 106.04-22.73 107.54-22.45 108.89-21.63 110.24-20.8 111.04-19.05L111.04-19.05Q111.39-18.3 111.59-17.25 111.79-16.2 111.86-14.53 111.94-12.85 111.94-10.15L111.94-10.15 111.94 0 108.74 0 108.74-10.25Q108.74-13.55 108.59-15.28 108.44-17 107.79-17.95L107.79-17.95Q107.39-18.65 106.31-19.33 105.24-20 103.09-20L103.09-20Q101.84-20 100.86-19.8 99.89-19.6 99.09-19.25L99.09-19.25 99.09 0 95.89 0 95.89-29.6 94.89-32.75 99.09-32.75Z" opacity="1" transform="matrix(1,0,0,1,0,0)" fill="#ffdb99" class="wordmark-text-0" data-fill-palette-color="primary" id="text-0"></path></svg></g></svg></g></svg></g></svg></g><g transform="matrix(1,0,0,1,423.87292163506845,0)"><svg viewBox="0 0 214.48851839999998 214.48851839999998" height="214.48851839999998" width="214.48851839999998"><g><svg></svg></g><g id="icon-0"><svg viewBox="0 0 214.48851839999998 214.48851839999998" height="214.48851839999998" width="214.48851839999998"><g><rect width="195.02567136" height="195.02567136" x="9.731423519999993" y="9.731423519999993" fill="#ff5db2" data-fill-palette-color="accent"></rect><rect width="195.02567136" height="195.02567136" x="-5.329070518200751e-15" y="-5.329070518200751e-15" fill="#ff5db2" opacity="0.5" data-fill-palette-color="accent"></rect></g><g transform="matrix(1,0,0,1,27.809895858029506,27.80406719999999)"><svg viewBox="0 0 158.86872668394096 158.880384" height="158.880384" width="158.86872668394096"><g><svg xmlns="http://www.w3.org/2000/svg" xmlns:xlink="http://www.w3.org/1999/xlink" version="1.1" x="0" y="0" viewBox="18.35298007056737 18.348659713436632 63.297699950414525 63.30234454793559" enable-background="new 0 0 100 100" xml:space="preserve" height="158.880384" width="158.86872668394096" class="icon-dxe-0" data-fill-palette-color="quaternary" id="dxe-0"><g fill="#1f0f53" data-fill-palette-color="quaternary"><path fill="#1f0f53" d="M80.951 48.597C76.622 45.336 71.942 43.686 67.044 43.686 66.937 43.686 66.831 43.686 66.724 43.688 66.62 43.686 66.512 43.686 66.406 43.686 65.975 43.686 65.549 43.715 65.123 43.74 65.522 43.386 65.915 43.023 66.291 42.637 69.889 39.141 72.105 34.59 72.878 29.106A1.75 1.75 0 0 0 72.382 27.619 1.76 1.76 0 0 0 70.894 27.122C65.412 27.895 60.859 30.112 57.365 33.711 56.981 34.084 56.621 34.475 56.268 34.872 56.3 34.342 56.322 33.81 56.314 33.275 56.387 28.259 54.735 23.474 51.404 19.048A1.756 1.756 0 0 0 48.599 19.048C45.269 23.473 43.618 28.259 43.69 33.275 43.682 33.81 43.704 34.341 43.735 34.872A22 22 0 0 0 42.638 33.711C39.145 30.112 34.593 27.895 29.109 27.122A1.755 1.755 0 0 0 27.124 29.106C27.898 34.59 30.114 39.142 33.712 42.637 34.087 43.023 34.481 43.385 34.88 43.74 34.453 43.716 34.026 43.686 33.596 43.686 33.489 43.686 33.383 43.686 33.277 43.688 33.171 43.686 33.065 43.686 32.956 43.686 28.058 43.686 23.379 45.336 19.051 48.597A1.758 1.758 0 0 0 19.051 51.402C23.38 54.662 28.059 56.312 32.959 56.312 33.065 56.312 33.171 56.312 33.277 56.31 33.383 56.312 33.5 56.304 33.595 56.312 34.027 56.312 34.454 56.283 34.883 56.259 34.484 56.613 34.09 56.976 33.715 57.363 30.116 60.857 27.899 65.41 27.125 70.892A1.75 1.75 0 0 0 27.623 72.378 1.76 1.76 0 0 0 29.111 72.876C34.595 72.103 39.147 69.886 42.64 66.288 43.024 65.915 43.385 65.522 43.737 65.126A22 22 0 0 0 43.692 66.724C43.619 71.74 45.271 76.525 48.601 80.951A1.756 1.756 0 0 0 51.407 80.951C54.737 76.525 56.389 71.74 56.316 66.724A21 21 0 0 0 56.27 65.128C56.623 65.524 56.982 65.917 57.367 66.288 60.861 69.886 65.413 72.102 70.896 72.876A1.76 1.76 0 0 0 72.88 70.892C72.108 65.408 69.89 60.855 66.292 57.363 65.917 56.976 65.522 56.613 65.123 56.259 65.551 56.282 65.978 56.312 66.409 56.312 66.516 56.312 66.622 56.312 66.726 56.31 66.832 56.312 66.939 56.312 67.044 56.312H67.045C71.944 56.312 76.624 54.662 80.953 51.402A1.757 1.757 0 0 0 80.951 48.597M48.784 49.509L50.001 48.294 51.215 49.509 50.001 50.724zM59.828 36.215L59.867 36.175C62.277 33.686 65.316 31.977 68.925 31.076 68.024 34.683 66.315 37.722 63.826 40.133 63.812 40.145 63.799 40.16 63.786 40.173 61.375 42.662 58.337 44.371 54.729 45.272 55.63 41.665 57.339 38.624 59.828 36.215M47.2 33.247C47.146 29.783 48.086 26.425 50.001 23.238 51.915 26.425 52.855 29.783 52.8 33.246V33.304C52.856 36.767 51.915 40.124 50.001 43.312 48.086 40.124 47.147 36.768 47.2 33.303zM31.077 31.076C34.685 31.976 37.724 33.685 40.133 36.175L40.173 36.215C42.662 38.624 44.372 41.663 45.271 45.272 41.665 44.371 38.625 42.662 36.214 40.171L36.175 40.132C33.686 37.722 31.977 34.684 31.077 31.076M33.303 52.799H33.247C33.151 52.801 33.055 52.803 32.958 52.803 29.597 52.803 26.338 51.862 23.238 50 26.337 48.139 29.596 47.199 32.955 47.199 33.053 47.199 33.15 47.199 33.247 47.201H33.303C33.401 47.199 33.498 47.199 33.595 47.199 36.954 47.199 40.214 48.138 43.312 50 40.213 51.862 36.953 52.803 33.593 52.803 33.496 52.803 33.399 52.801 33.303 52.799M40.174 63.785L40.133 63.824C37.724 66.312 34.685 68.021 31.077 68.924 31.976 65.317 33.685 62.278 36.175 59.865L36.216 59.826C38.625 57.338 41.664 55.629 45.272 54.728 44.371 58.336 42.662 61.375 40.174 63.785M52.8 66.752C52.856 70.217 51.915 73.574 50.001 76.762 48.086 73.574 47.147 70.217 47.2 66.752V66.697C47.146 63.232 48.086 59.875 50.001 56.687 51.915 59.875 52.855 63.232 52.8 66.697zM68.924 68.924C65.317 68.022 62.278 66.313 59.866 63.826L59.828 63.785C57.339 61.375 55.63 58.336 54.729 54.728 58.336 55.628 61.375 57.337 63.785 59.826 63.799 59.84 63.811 59.853 63.825 59.865 66.314 62.277 68.022 65.314 68.924 68.924M67.042 52.803C66.946 52.803 66.85 52.801 66.753 52.799H66.696C66.6 52.801 66.504 52.803 66.407 52.803 63.046 52.803 59.787 51.862 56.689 50 59.787 48.139 63.045 47.199 66.406 47.199A14 14 0 0 1 66.754 47.201C66.851 47.199 66.948 47.199 67.045 47.199 70.405 47.199 73.665 48.138 76.763 50 73.664 51.861 70.404 52.803 67.042 52.803" data-fill-palette-color="quaternary"></path><circle fill="#1f0f53" cx="66.725" cy="50" r="2.3" data-fill-palette-color="quaternary"></circle><circle fill="#1f0f53" cx="33.276" cy="50" r="2.3" data-fill-palette-color="quaternary"></circle><circle fill="#1f0f53" cx="50" cy="66.725" r="2.3" data-fill-palette-color="quaternary"></circle><circle fill="#1f0f53" cx="50" cy="33.275" r="2.3" data-fill-palette-color="quaternary"></circle><circle fill="#1f0f53" cx="61.827" cy="61.825" r="2.3" data-fill-palette-color="quaternary"></circle><circle fill="#1f0f53" cx="38.174" cy="38.174" r="2.3" data-fill-palette-color="quaternary"></circle><circle fill="#1f0f53" cx="38.174" cy="61.825" r="2.3" data-fill-palette-color="quaternary"></circle><circle fill="#1f0f53" cx="61.827" cy="38.174" r="2.3" data-fill-palette-color="quaternary"></circle></g></svg></g></svg></g></svg></g></svg></g></svg></g><defs></defs></svg><rect width="395.52" height="132.89414660275784" fill="none" stroke="none" visibility="hidden"></rect></g></svg></g></svg>